<svg width="66" height="71" viewBox="0 0 66 71" fill="none" xmlns="http://www.w3.org/2000/svg">
<rect x="1" y="1" width="64" height="67" fill="black" fill-opacity="0.8" stroke="black" stroke-width="2"/>
<g filter="url(#filter0_d)">
<path d="M21.59 25.4H28.95L24.71 13.74L20.25 26H19.61L24.71 11.98L29.81 26H21.59V25.4ZM40.348 26H37.148V12H39.588C41.348 12 42.6746 12.3267 43.568 12.98C44.4613 13.62 44.908 14.5267 44.908 15.7C44.908 17.0333 44.348 18.0133 43.228 18.64C44.8546 19.2533 45.668 20.4067 45.668 22.1C45.668 23.3 45.228 24.2533 44.348 24.96C43.468 25.6533 42.1346 26 40.348 26ZM40.348 25.4C40.9746 25.4 41.548 25.3533 42.068 25.26C42.588 25.1533 43.0813 24.9867 43.548 24.76C44.028 24.52 44.4013 24.1733 44.668 23.72C44.9346 23.2667 45.068 22.7267 45.068 22.1C45.068 20.6733 44.3813 19.7067 43.008 19.2L41.808 18.76L42.928 18.12C43.848 17.6133 44.308 16.8067 44.308 15.7C44.308 13.6333 42.7346 12.6 39.588 12.6H37.748V25.4H40.348Z" fill="white"/>
<path d="M21.59 25.4V23.4H19.59V25.4H21.59ZM28.95 25.4V27.4H31.8054L30.8296 24.7165L28.95 25.4ZM24.71 13.74L26.5896 13.0565L24.7104 7.8887L22.8305 13.0563L24.71 13.74ZM20.25 26V28H21.6507L22.1295 26.6837L20.25 26ZM19.61 26L17.7305 25.3163L16.7543 28H19.61V26ZM24.71 11.98L26.5895 11.2963L24.71 6.12949L22.8305 11.2963L24.71 11.98ZM29.81 26V28H32.6657L31.6895 25.3163L29.81 26ZM21.59 26H19.59V28H21.59V26ZM21.59 27.4H28.95V23.4H21.59V27.4ZM30.8296 24.7165L26.5896 13.0565L22.8304 14.4235L27.0704 26.0835L30.8296 24.7165ZM22.8305 13.0563L18.3705 25.3163L22.1295 26.6837L26.5895 14.4237L22.8305 13.0563ZM20.25 24H19.61V28H20.25V24ZM21.4895 26.6837L26.5895 12.6637L22.8305 11.2963L17.7305 25.3163L21.4895 26.6837ZM22.8305 12.6637L27.9305 26.6837L31.6895 25.3163L26.5895 11.2963L22.8305 12.6637ZM29.81 24H21.59V28H29.81V24ZM23.59 26V25.4H19.59V26H23.59ZM37.148 26H35.148V28H37.148V26ZM37.148 12V10H35.148V12H37.148ZM43.568 12.98L42.3873 14.5943L42.3952 14.6001L42.4032 14.6058L43.568 12.98ZM43.228 18.64L42.2514 16.8946L38.4988 18.9943L42.5224 20.5114L43.228 18.64ZM44.348 24.96L45.5857 26.531L45.593 26.5252L45.6002 26.5194L44.348 24.96ZM42.068 25.26L42.4213 27.2285L42.4456 27.2242L42.4699 27.2192L42.068 25.26ZM43.548 24.76L44.4218 26.559L44.4321 26.554L44.4424 26.5489L43.548 24.76ZM44.668 23.72L42.9441 22.706L42.9441 22.706L44.668 23.72ZM43.008 19.2L43.7002 17.3236L43.6965 17.3222L43.008 19.2ZM41.808 18.76L40.8157 17.0235L37.0817 19.1572L41.1195 20.6378L41.808 18.76ZM42.928 18.12L41.9632 16.3681L41.9494 16.3757L41.9357 16.3835L42.928 18.12ZM37.748 12.6V10.6H35.748V12.6H37.748ZM37.748 25.4H35.748V27.4H37.748V25.4ZM40.348 24H37.148V28H40.348V24ZM39.148 26V12H35.148V26H39.148ZM37.148 14H39.588V10H37.148V14ZM39.588 14C41.1554 14 41.9856 14.3005 42.3873 14.5943L44.7486 11.3657C43.3637 10.3528 41.5405 10 39.588 10V14ZM42.4032 14.6058C42.732 14.8414 42.908 15.1203 42.908 15.7H46.908C46.908 13.933 46.1906 12.3986 44.7327 11.3542L42.4032 14.6058ZM42.908 15.7C42.908 16.082 42.8298 16.3056 42.7515 16.4427C42.6754 16.5759 42.5388 16.7338 42.2514 16.8946L44.2045 20.3854C45.0372 19.9195 45.7406 19.2741 46.2245 18.4273C46.7061 17.5844 46.908 16.6513 46.908 15.7H42.908ZM42.5224 20.5114C43.0487 20.7098 43.2962 20.937 43.4235 21.1176C43.548 21.2941 43.668 21.5818 43.668 22.1H47.668C47.668 20.9248 47.3813 19.7892 46.6924 18.8124C46.0064 17.8396 45.0339 17.1835 43.9336 16.7686L42.5224 20.5114ZM43.668 22.1C43.668 22.7379 43.4696 23.1003 43.0957 23.4006L45.6002 26.5194C46.9863 25.4064 47.668 23.8621 47.668 22.1H43.668ZM43.1102 23.389C42.7384 23.6819 41.9347 24 40.348 24V28C42.3346 28 44.1975 27.6247 45.5857 26.531L43.1102 23.389ZM40.348 27.4C41.0719 27.4 41.7656 27.3462 42.4213 27.2285L41.7146 23.2915C41.3304 23.3604 40.8773 23.4 40.348 23.4V27.4ZM42.4699 27.2192C43.1494 27.0798 43.8016 26.8602 44.4218 26.559L42.6742 22.961C42.361 23.1131 42.0265 23.2269 41.6661 23.3008L42.4699 27.2192ZM44.4424 26.5489C45.2604 26.1398 45.9251 25.5274 46.3918 24.734L42.9441 22.706C42.8775 22.8192 42.7955 22.9002 42.6535 22.9711L44.4424 26.5489ZM46.3918 24.734C46.8712 23.9192 47.068 23.0146 47.068 22.1H43.068C43.068 22.4387 42.9981 22.6142 42.9441 22.706L46.3918 24.734ZM47.068 22.1C47.068 21.0577 46.8126 20.0325 46.1835 19.1468C45.5572 18.2651 44.6754 17.6834 43.7002 17.3236L42.3157 21.0764C42.7138 21.2233 42.8621 21.3782 42.9225 21.4632C42.98 21.5442 43.068 21.7156 43.068 22.1H47.068ZM43.6965 17.3222L42.4965 16.8822L41.1195 20.6378L42.3195 21.0778L43.6965 17.3222ZM42.8002 20.4965L43.9202 19.8565L41.9357 16.3835L40.8157 17.0235L42.8002 20.4965ZM43.8928 19.8719C44.6322 19.4647 45.2648 18.8895 45.7003 18.1257C46.1328 17.3674 46.308 16.534 46.308 15.7H42.308C42.308 15.9726 42.2532 16.0959 42.2256 16.1443C42.2011 16.1872 42.1438 16.2686 41.9632 16.3681L43.8928 19.8719ZM46.308 15.7C46.308 14.0712 45.6379 12.6307 44.2259 11.7033C42.9606 10.8723 41.3166 10.6 39.588 10.6V14.6C41.006 14.6 41.722 14.8444 42.03 15.0467C42.1569 15.13 42.2036 15.1978 42.2295 15.2489C42.2593 15.3076 42.308 15.4388 42.308 15.7H46.308ZM39.588 10.6H37.748V14.6H39.588V10.6ZM35.748 12.6V25.4H39.748V12.6H35.748ZM37.748 27.4H40.348V23.4H37.748V27.4Z" fill="white"/>
</g>
<g filter="url(#filter1_d)">
<path d="M44.5467 43.6H37.1867L41.4267 55.26L45.8867 43H46.5267L41.4267 57.02L36.3267 43H44.5467V43.6ZM27.0687 43H28.9887L28.9887 57H27.0687C25.1487 57 23.5221 56.2933 22.1887 54.88C20.8554 53.4667 20.1887 51.84 20.1887 50C20.1887 48.16 20.8554 46.5333 22.1887 45.12C23.5221 43.7067 25.1487 43 27.0687 43ZM27.0687 43.6C25.3221 43.6 23.8421 44.24 22.6287 45.52C21.4021 46.8133 20.7887 48.3067 20.7887 50C20.7887 51.6933 21.4021 53.18 22.6287 54.46C23.8421 55.7533 25.3221 56.4 27.0687 56.4H28.3887L28.3887 43.6H27.0687Z" fill="white"/>
<path d="M44.5467 43.6V45.6H46.5467V43.6H44.5467ZM37.1867 43.6V41.6H34.3313L35.3071 44.2835L37.1867 43.6ZM41.4267 55.26L39.5471 55.9435L41.4263 61.1113L43.3062 55.9437L41.4267 55.26ZM45.8867 43V41H44.4861L44.0072 42.3163L45.8867 43ZM46.5267 43L48.4062 43.6837L49.3825 41H46.5267V43ZM41.4267 57.02L39.5472 57.7037L41.4267 62.8705L43.3062 57.7037L41.4267 57.02ZM36.3267 43V41H33.471L34.4472 43.6837L36.3267 43ZM44.5467 43H46.5467V41H44.5467V43ZM44.5467 41.6H37.1867V45.6H44.5467V41.6ZM35.3071 44.2835L39.5471 55.9435L43.3063 54.5765L39.0663 42.9165L35.3071 44.2835ZM43.3062 55.9437L47.7662 43.6837L44.0072 42.3163L39.5472 54.5763L43.3062 55.9437ZM45.8867 45H46.5267V41H45.8867V45ZM44.6472 42.3163L39.5472 56.3363L43.3062 57.7037L48.4062 43.6837L44.6472 42.3163ZM43.3062 56.3363L38.2062 42.3163L34.4472 43.6837L39.5472 57.7037L43.3062 56.3363ZM36.3267 45H44.5467V41H36.3267V45ZM42.5467 43V43.6H46.5467V43H42.5467ZM28.9887 43H30.9887V41H28.9887V43ZM28.9887 57V59H30.9887V57H28.9887ZM22.1887 54.88L23.6435 53.5076L23.6435 53.5076L22.1887 54.88ZM22.1887 45.12L23.6435 46.4924L23.6435 46.4924L22.1887 45.12ZM22.6287 45.52L24.0799 46.8963L24.0803 46.8959L22.6287 45.52ZM22.6287 54.46L24.0874 53.0916L24.0801 53.0839L24.0727 53.0762L22.6287 54.46ZM28.3887 56.4V58.4H30.3887V56.4H28.3887ZM28.3887 43.6H30.3887V41.6H28.3887V43.6ZM27.0687 45H28.9887V41H27.0687V45ZM26.9887 43L26.9887 57H30.9887L30.9887 43H26.9887ZM28.9887 55H27.0687V59H28.9887V55ZM27.0687 55C25.7068 55 24.6041 54.5258 23.6435 53.5076L20.734 56.2524C22.44 58.0609 24.5907 59 27.0687 59V55ZM23.6435 53.5076C22.6388 52.4425 22.1887 51.2991 22.1887 50H18.1887C18.1887 52.3809 19.0721 54.4908 20.734 56.2524L23.6435 53.5076ZM22.1887 50C22.1887 48.7009 22.6388 47.5575 23.6435 46.4924L20.734 43.7476C19.0721 45.5092 18.1887 47.6191 18.1887 50H22.1887ZM23.6435 46.4924C24.6041 45.4742 25.7068 45 27.0687 45V41C24.5907 41 22.44 41.9391 20.734 43.7476L23.6435 46.4924ZM27.0687 41.6C24.7671 41.6 22.7641 42.4701 21.1772 44.1441L24.0803 46.8959C24.9201 46.0099 25.8771 45.6 27.0687 45.6V41.6ZM21.1776 44.1437C19.619 45.787 18.7887 47.7655 18.7887 50H22.7887C22.7887 48.8478 23.1851 47.8397 24.0799 46.8963L21.1776 44.1437ZM18.7887 50C18.7887 52.2352 19.6198 54.2108 21.1848 55.8438L24.0727 53.0762C23.1843 52.1492 22.7887 51.1514 22.7887 50H18.7887ZM21.1701 55.8284C22.755 57.5177 24.76 58.4 27.0687 58.4V54.4C25.8842 54.4 24.9292 53.9889 24.0874 53.0916L21.1701 55.8284ZM27.0687 58.4H28.3887V54.4H27.0687V58.4ZM30.3887 56.4L30.3887 43.6H26.3887L26.3887 56.4H30.3887ZM28.3887 41.6H27.0687V45.6H28.3887V41.6Z" fill="white"/>
</g>
<defs>
<filter id="filter0_d" x="12.7543" y="6.12949" width="38.9137" height="29.8705" filterUnits="userSpaceOnUse" color-interpolation-filters="sRGB">
<feFlood flood-opacity="0" result="BackgroundImageFix"/>
<feColorMatrix in="SourceAlpha" type="matrix" values="0 0 0 0 0 0 0 0 0 0 0 0 0 0 0 0 0 0 127 0"/>
<feOffset dy="4"/>
<feGaussianBlur stdDeviation="2"/>
<feColorMatrix type="matrix" values="0 0 0 0 0 0 0 0 0 0 0 0 0 0 0 0 0 0 0.25 0"/>
<feBlend mode="normal" in2="BackgroundImageFix" result="effect1_dropShadow"/>
<feBlend mode="normal" in="SourceGraphic" in2="effect1_dropShadow" result="shape"/>
</filter>
<filter id="filter1_d" x="14.1888" y="41" width="39.1937" height="29.8705" filterUnits="userSpaceOnUse" color-interpolation-filters="sRGB">
<feFlood flood-opacity="0" result="BackgroundImageFix"/>
<feColorMatrix in="SourceAlpha" type="matrix" values="0 0 0 0 0 0 0 0 0 0 0 0 0 0 0 0 0 0 127 0"/>
<feOffset dy="4"/>
<feGaussianBlur stdDeviation="2"/>
<feColorMatrix type="matrix" values="0 0 0 0 0 0 0 0 0 0 0 0 0 0 0 0 0 0 0.25 0"/>
<feBlend mode="normal" in2="BackgroundImageFix" result="effect1_dropShadow"/>
<feBlend mode="normal" in="SourceGraphic" in2="effect1_dropShadow" result="shape"/>
</filter>
</defs>
</svg>
