<svg width="68" height="68" viewBox="0 0 68 68" fill="none" xmlns="http://www.w3.org/2000/svg">
<rect x="1" y="1" width="66" height="66" fill="black" stroke="black" stroke-width="2"/>
<g filter="url(#filter0_d)">
<path d="M22.59 25.4H29.95L25.71 13.74L21.25 26H20.61L25.71 11.98L30.81 26H22.59V25.4ZM41.348 26H38.148V12H40.588C42.348 12 43.6746 12.3267 44.568 12.98C45.4613 13.62 45.908 14.5267 45.908 15.7C45.908 17.0333 45.348 18.0133 44.228 18.64C45.8546 19.2533 46.668 20.4067 46.668 22.1C46.668 23.3 46.228 24.2533 45.348 24.96C44.468 25.6533 43.1346 26 41.348 26ZM41.348 25.4C41.9746 25.4 42.548 25.3533 43.068 25.26C43.588 25.1533 44.0813 24.9867 44.548 24.76C45.028 24.52 45.4013 24.1733 45.668 23.72C45.9346 23.2667 46.068 22.7267 46.068 22.1C46.068 20.6733 45.3813 19.7067 44.008 19.2L42.808 18.76L43.928 18.12C44.848 17.6133 45.308 16.8067 45.308 15.7C45.308 13.6333 43.7346 12.6 40.588 12.6H38.748V25.4H41.348Z" fill="#F2F2F2"/>
<path d="M22.59 25.4V24.4H21.59V25.4H22.59ZM29.95 25.4V26.4H31.3777L30.8898 25.0583L29.95 25.4ZM25.71 13.74L26.6498 13.3983L25.7102 10.8144L24.7703 13.3981L25.71 13.74ZM21.25 26V27H21.9503L22.1897 26.3419L21.25 26ZM20.61 26L19.6702 25.6581L19.1821 27H20.61V26ZM25.71 11.98L26.6498 11.6381L25.71 9.05475L24.7702 11.6381L25.71 11.98ZM30.81 26V27H32.2379L31.7498 25.6581L30.81 26ZM22.59 26H21.59V27H22.59V26ZM22.59 26.4H29.95V24.4H22.59V26.4ZM30.8898 25.0583L26.6498 13.3983L24.7702 14.0817L29.0102 25.7417L30.8898 25.0583ZM24.7703 13.3981L20.3103 25.6581L22.1897 26.3419L26.6497 14.0819L24.7703 13.3981ZM21.25 25H20.61V27H21.25V25ZM21.5498 26.3419L26.6498 12.3218L24.7702 11.6381L19.6702 25.6581L21.5498 26.3419ZM24.7702 12.3218L29.8702 26.3419L31.7498 25.6581L26.6498 11.6381L24.7702 12.3218ZM30.81 25H22.59V27H30.81V25ZM23.59 26V25.4H21.59V26H23.59ZM38.148 26H37.148V27H38.148V26ZM38.148 12V11H37.148V12H38.148ZM44.568 12.98L43.9776 13.7872L43.9856 13.7929L44.568 12.98ZM44.228 18.64L43.7397 17.7673L41.8634 18.8172L43.8752 19.5757L44.228 18.64ZM45.348 24.96L45.9669 25.7455L45.9741 25.7397L45.348 24.96ZM43.068 25.26L43.2446 26.2443L43.2568 26.2421L43.2689 26.2396L43.068 25.26ZM44.548 24.76L44.9849 25.6596L44.9952 25.6544L44.548 24.76ZM45.668 23.72L44.806 23.213L44.806 23.213L45.668 23.72ZM44.008 19.2L44.3541 18.2618L44.3522 18.2611L44.008 19.2ZM42.808 18.76L42.3118 17.8918L40.4448 18.9586L42.4637 19.6989L42.808 18.76ZM43.928 18.12L43.4456 17.2441L43.4387 17.2479L43.4318 17.2518L43.928 18.12ZM38.748 12.6V11.6H37.748V12.6H38.748ZM38.748 25.4H37.748V26.4H38.748V25.4ZM41.348 25H38.148V27H41.348V25ZM39.148 26V12H37.148V26H39.148ZM38.148 13H40.588V11H38.148V13ZM40.588 13C42.2517 13 43.3301 13.3136 43.9777 13.7872L45.1583 12.1728C44.0192 11.3397 42.4443 11 40.588 11V13ZM43.9856 13.7929C44.5966 14.2307 44.908 14.8235 44.908 15.7H46.908C46.908 14.2298 46.326 13.0093 45.1504 12.1671L43.9856 13.7929ZM44.908 15.7C44.908 16.2243 44.7989 16.6253 44.6197 16.9389C44.4417 17.2505 44.1634 17.5303 43.7397 17.7673L44.7163 19.5127C45.4126 19.1231 45.9743 18.5995 46.3562 17.9311C46.737 17.2647 46.908 16.509 46.908 15.7H44.908ZM43.8752 19.5757C44.545 19.8283 44.9737 20.1627 45.2407 20.5413C45.5063 20.9179 45.668 21.4176 45.668 22.1H47.668C47.668 21.0891 47.423 20.1654 46.8752 19.3887C46.3289 18.614 45.5376 18.0651 44.5808 17.7043L43.8752 19.5757ZM45.668 22.1C45.668 23.0189 45.3488 23.6768 44.7218 24.1803L45.9741 25.7397C47.1071 24.8298 47.668 23.5811 47.668 22.1H45.668ZM44.7291 24.1745C44.1032 24.6676 43.0347 25 41.348 25V27C43.2346 27 44.8327 26.639 45.9668 25.7455L44.7291 24.1745ZM41.348 26.4C42.0233 26.4 42.6568 26.3498 43.2446 26.2443L42.8913 24.2757C42.4392 24.3569 41.926 24.4 41.348 24.4V26.4ZM43.2689 26.2396C43.8687 26.1166 44.4415 25.9234 44.9849 25.6595L44.1111 23.8605C43.7211 24.0499 43.3072 24.1901 42.867 24.2804L43.2689 26.2396ZM44.9952 25.6544C45.6442 25.3299 46.1632 24.8504 46.5299 24.227L44.806 23.213C44.6394 23.4963 44.4117 23.7101 44.1008 23.8656L44.9952 25.6544ZM46.5299 24.227C46.9029 23.5929 47.068 22.8707 47.068 22.1H45.068C45.068 22.5827 44.9664 22.9404 44.806 23.213L46.5299 24.227ZM47.068 22.1C47.068 21.2222 46.8545 20.4104 46.3682 19.7259C45.8834 19.0434 45.185 18.5684 44.3541 18.2618L43.6618 20.1382C44.2042 20.3383 44.5359 20.5999 44.7377 20.8841C44.9381 21.1662 45.068 21.5511 45.068 22.1H47.068ZM44.3522 18.2611L43.1522 17.8211L42.4637 19.6989L43.6637 20.1389L44.3522 18.2611ZM43.3041 19.6282L44.4241 18.9882L43.4318 17.2518L42.3118 17.8918L43.3041 19.6282ZM44.4104 18.9959C45.0101 18.6657 45.4989 18.2139 45.8317 17.6304C46.1629 17.0496 46.308 16.3937 46.308 15.7H44.308C44.308 16.113 44.2231 16.4138 44.0943 16.6396C43.9671 16.8628 43.7659 17.0677 43.4456 17.2441L44.4104 18.9959ZM46.308 15.7C46.308 14.3689 45.7763 13.2612 44.6769 12.5392C43.651 11.8653 42.239 11.6 40.588 11.6V13.6C42.0836 13.6 43.0317 13.8514 43.579 14.2108C44.053 14.5222 44.308 14.9644 44.308 15.7H46.308ZM40.588 11.6H38.748V13.6H40.588V11.6ZM37.748 12.6V25.4H39.748V12.6H37.748ZM38.748 26.4H41.348V24.4H38.748V26.4Z" fill="white"/>
</g>
<g filter="url(#filter1_d)">
<path d="M45.5467 42.6923H38.1867L42.4267 54.3523L46.8867 42.0923H47.5267L42.4267 56.1123L37.3267 42.0923H45.5467V42.6923ZM28.0688 42.0923H29.9888L29.9888 56.0923H28.0688C26.1488 56.0923 24.5221 55.3856 23.1888 53.9723C21.8554 52.559 21.1888 50.9323 21.1888 49.0923C21.1888 47.2523 21.8554 45.6256 23.1888 44.2123C24.5221 42.799 26.1488 42.0923 28.0688 42.0923ZM28.0688 42.6923C26.3221 42.6923 24.8421 43.3323 23.6288 44.6123C22.4021 45.9056 21.7888 47.399 21.7888 49.0923C21.7888 50.7856 22.4021 52.2723 23.6288 53.5523C24.8421 54.8456 26.3221 55.4923 28.0688 55.4923H29.3888L29.3888 42.6923H28.0688Z" fill="#F2F2F2"/>
<path d="M45.5467 42.6923V43.6923H46.5467V42.6923H45.5467ZM38.1867 42.6923V41.6923H36.759L37.2469 43.0341L38.1867 42.6923ZM42.4267 54.3523L41.4869 54.6941L42.4265 57.278L43.3665 54.6942L42.4267 54.3523ZM46.8867 42.0923V41.0923H46.1864L45.947 41.7504L46.8867 42.0923ZM47.5267 42.0923L48.4665 42.4342L48.9546 41.0923H47.5267V42.0923ZM42.4267 56.1123L41.487 56.4542L42.4267 59.0376L43.3665 56.4542L42.4267 56.1123ZM37.3267 42.0923V41.0923H35.8988L36.387 42.4342L37.3267 42.0923ZM45.5467 42.0923H46.5467V41.0923H45.5467V42.0923ZM45.5467 41.6923H38.1867V43.6923H45.5467V41.6923ZM37.2469 43.0341L41.4869 54.6941L43.3665 54.0106L39.1265 42.3506L37.2469 43.0341ZM43.3665 54.6942L47.8265 42.4342L45.947 41.7504L41.487 54.0105L43.3665 54.6942ZM46.8867 43.0923H47.5267V41.0923H46.8867V43.0923ZM46.587 41.7505L41.487 55.7705L43.3665 56.4542L48.4665 42.4342L46.587 41.7505ZM43.3665 55.7705L38.2665 41.7505L36.387 42.4342L41.487 56.4542L43.3665 55.7705ZM37.3267 43.0923H45.5467V41.0923H37.3267V43.0923ZM44.5467 42.0923V42.6923H46.5467V42.0923H44.5467ZM29.9888 42.0923H30.9888V41.0923H29.9888V42.0923ZM29.9888 56.0923V57.0923H30.9888V56.0923H29.9888ZM23.1888 53.9723L23.9161 53.2861L23.9161 53.2861L23.1888 53.9723ZM23.1888 44.2123L23.9161 44.8985L23.9161 44.8985L23.1888 44.2123ZM23.6288 44.6123L24.3543 45.3005L24.3545 45.3003L23.6288 44.6123ZM23.6288 53.5523L24.3581 52.8681L24.3507 52.8604L23.6288 53.5523ZM29.3888 55.4923V56.4923H30.3888V55.4923H29.3888ZM29.3888 42.6923H30.3888V41.6923H29.3888V42.6923ZM28.0688 43.0923H29.9888V41.0923H28.0688V43.0923ZM28.9888 42.0923L28.9888 56.0923H30.9888L30.9888 42.0923H28.9888ZM29.9888 55.0923H28.0688V57.0923H29.9888V55.0923ZM28.0688 55.0923C26.4278 55.0923 25.0631 54.5019 23.9161 53.2861L22.4614 54.6585C23.9811 56.2694 25.8697 57.0923 28.0688 57.0923V55.0923ZM23.9161 53.2861C22.7471 52.0469 22.1888 50.6619 22.1888 49.0923H20.1888C20.1888 51.2028 20.9637 53.0711 22.4614 54.6585L23.9161 53.2861ZM22.1888 49.0923C22.1888 47.5228 22.7471 46.1377 23.9161 44.8985L22.4614 43.5261C20.9637 45.1136 20.1888 46.9819 20.1888 49.0923H22.1888ZM23.9161 44.8985C25.0631 43.6827 26.4278 43.0923 28.0688 43.0923V41.0923C25.8697 41.0923 23.9811 41.9152 22.4614 43.5261L23.9161 44.8985ZM28.0688 41.6923C26.0446 41.6923 24.3031 42.4473 22.903 43.9244L24.3545 45.3003C25.3811 44.2173 26.5996 43.6923 28.0688 43.6923V41.6923ZM22.9032 43.9242C21.5106 45.3925 20.7888 47.1284 20.7888 49.0923H22.7888C22.7888 47.6695 23.2936 46.4188 24.3543 45.3005L22.9032 43.9242ZM20.7888 49.0923C20.7888 51.0566 21.511 52.7877 22.9068 54.2442L24.3507 52.8604C23.2932 51.7569 22.7888 50.5147 22.7888 49.0923H20.7888ZM22.8994 54.2365C24.2985 55.7278 26.041 56.4923 28.0688 56.4923V54.4923C26.6031 54.4923 25.3856 53.9635 24.3581 52.8681L22.8994 54.2365ZM28.0688 56.4923H29.3888V54.4923H28.0688V56.4923ZM30.3888 55.4923L30.3888 42.6923H28.3888L28.3888 55.4923H30.3888ZM29.3888 41.6923H28.0688V43.6923H29.3888V41.6923Z" fill="white"/>
</g>
<defs>
<filter id="filter0_d" x="15.1821" y="9.05475" width="36.4858" height="25.9453" filterUnits="userSpaceOnUse" color-interpolation-filters="sRGB">
<feFlood flood-opacity="0" result="BackgroundImageFix"/>
<feColorMatrix in="SourceAlpha" type="matrix" values="0 0 0 0 0 0 0 0 0 0 0 0 0 0 0 0 0 0 127 0"/>
<feOffset dy="4"/>
<feGaussianBlur stdDeviation="2"/>
<feColorMatrix type="matrix" values="0 0 0 0 0.529167 0 0 0 0 0.529167 0 0 0 0 0.529167 0 0 0 1 0"/>
<feBlend mode="normal" in2="BackgroundImageFix" result="effect1_dropShadow"/>
<feBlend mode="normal" in="SourceGraphic" in2="effect1_dropShadow" result="shape"/>
</filter>
<filter id="filter1_d" x="16.1888" y="41.0923" width="36.7658" height="25.9453" filterUnits="userSpaceOnUse" color-interpolation-filters="sRGB">
<feFlood flood-opacity="0" result="BackgroundImageFix"/>
<feColorMatrix in="SourceAlpha" type="matrix" values="0 0 0 0 0 0 0 0 0 0 0 0 0 0 0 0 0 0 127 0"/>
<feOffset dy="4"/>
<feGaussianBlur stdDeviation="2"/>
<feColorMatrix type="matrix" values="0 0 0 0 0.5875 0 0 0 0 0.5875 0 0 0 0 0.5875 0 0 0 1 0"/>
<feBlend mode="normal" in2="BackgroundImageFix" result="effect1_dropShadow"/>
<feBlend mode="normal" in="SourceGraphic" in2="effect1_dropShadow" result="shape"/>
</filter>
</defs>
</svg>
